<svg width="35" height="35" viewBox="0 0 35 35" fill="none" xmlns="http://www.w3.org/2000/svg">
<rect y="0.341797" width="34.658" height="34.658" rx="16.607" fill="#EAEAEA"/>
<path d="M23.5845 23.1052H12.2657C12.1114 23.1052 11.957 23.0023 11.8541 22.8994C11.7512 22.7966 11.7512 22.5908 11.8027 22.4364L12.7802 19.9669L11.8027 10.7575H8.66431V9.72852H12.2657C12.523 9.72852 12.7288 9.93431 12.7802 10.1916L13.8092 19.9669C13.8092 20.0698 13.8092 20.1212 13.7578 20.2241L13.0375 22.0763H24.099L23.5845 23.1052Z" fill="black"/>
<path d="M13.3977 20.5324L13.1919 19.5034L25.128 17.0339V12.8151H12.7803V11.7861H25.6425C25.9512 11.7861 26.157 11.9919 26.157 12.3006V17.4455C26.157 17.7027 26.0027 17.9085 25.7454 17.9599L13.3977 20.5324Z" fill="black"/>
<path d="M24.0992 26.1925C22.9674 26.1925 22.0413 25.2664 22.0413 24.1345C22.0413 23.0026 22.9674 22.0766 24.0992 22.0766C25.2311 22.0766 26.1572 23.0026 26.1572 24.1345C26.1572 25.2664 25.2311 26.1925 24.0992 26.1925ZM24.0992 23.1055C23.5333 23.1055 23.0703 23.5686 23.0703 24.1345C23.0703 24.7005 23.5333 25.1635 24.0992 25.1635C24.6652 25.1635 25.1282 24.7005 25.1282 24.1345C25.1282 23.5686 24.6652 23.1055 24.0992 23.1055Z" fill="black"/>
<path d="M11.7514 26.1925C10.6195 26.1925 9.69342 25.2664 9.69342 24.1345C9.69342 23.0026 10.6195 22.0766 11.7514 22.0766C12.8833 22.0766 13.8093 23.0026 13.8093 24.1345C13.8093 25.2664 12.8833 26.1925 11.7514 26.1925ZM11.7514 23.1055C11.1854 23.1055 10.7224 23.5686 10.7224 24.1345C10.7224 24.7005 11.1854 25.1635 11.7514 25.1635C12.3173 25.1635 12.7804 24.7005 12.7804 24.1345C12.7804 23.5686 12.3173 23.1055 11.7514 23.1055Z" fill="black"/>
</svg>
